<svg width="98" height="96"
    viewBox="0 0 350 350" fill="none" xmlns="http://www.w3.org/2000/svg">
    <path
        d="M175 350C271.65 350 350 271.65 350 175C350 78.3502 271.65 0 175 0C78.3502 0 0 78.3502 0 175C0 271.65 78.3502 350 175 350Z"
        fill="#7ACDFF" />
    <path
        d="M99.226 250.566C99.226 250.566 38.415 227.752 25.398 286.926L38.246 284.365C38.246 284.365 23.191 301.679 17.854 334.514C50.507 328.156 67.343 312.569 67.343 312.569L65.183 325.491C123.924 310.637 99.226 250.566 99.226 250.566Z"
        fill="url(#paint0_linear_1188_1702)" />
    <path
        d="M99.2262 250.566C99.2262 250.566 61.2942 236.335 53.1752 273.246L61.1892 271.648C61.1892 271.648 51.7982 282.448 48.4692 302.929C68.8372 298.963 79.3382 289.24 79.3382 289.24L77.9912 297.3C114.632 288.036 99.2262 250.566 99.2262 250.566Z"
        fill="url(#paint1_linear_1188_1702)" />
    <path d="M142.209 247.546L100.712 206.49L112.147 194.984L153.644 236.041L142.209 247.546Z"
        fill="url(#paint2_linear_1188_1702)" />
    <path
        d="M132.205 140.487C132.205 140.487 93.6641 137.64 77.8511 153.543C60.7881 170.703 46.6561 191.701 35.2451 221.713C29.1561 237.728 45.2351 221.175 55.9011 211.425C74.5741 194.356 83.7792 194.702 101.557 198.775C101.557 198.775 111.143 179.159 132.205 140.487Z"
        fill="url(#paint3_linear_1188_1702)" />
    <path opacity="0.33"
        d="M132.205 140.487C132.205 140.487 93.6642 137.64 77.8512 153.543C60.7882 170.703 46.6563 191.701 35.2452 221.713C34.1033 224.716 33.7412 226.574 33.9762 227.546C33.9762 227.546 50.3813 189.528 68.3543 170.924C86.3273 152.32 98.3092 145.365 132.205 140.487Z"
        fill="white" />
    <path
        d="M208.322 215.797C208.322 215.797 211.5 254.226 195.695 270.137C178.64 287.306 157.714 301.582 127.733 313.219C111.734 319.429 128.188 303.247 137.87 292.523C154.819 273.749 154.395 264.568 150.164 246.865C150.164 246.865 169.741 237.136 208.322 215.797Z"
        fill="url(#paint4_linear_1188_1702)" />
    <path
        d="M329.692 70.799C336.099 29.266 327.933 19.497 327.933 19.497C327.933 19.497 318.073 11.432 276.502 18.173C232.594 25.293 204.725 52.29 185.747 71.058C161.193 95.34 120.699 151.214 101.558 198.775L125.986 222.693L150.163 246.864C197.668 227.366 253.325 186.494 277.454 161.792C296.104 142.7 322.925 114.667 329.692 70.799Z"
        fill="url(#paint5_linear_1188_1702)" />
    <path
        d="M107.754 204.842L125.986 222.693L150.163 246.864C197.668 227.366 253.325 186.494 277.454 161.792C296.104 142.699 322.926 114.666 329.692 70.799C336.099 29.266 327.933 19.497 327.933 19.497"
        fill="url(#paint6_linear_1188_1702)" />
    <path opacity="0.09" d="M105.015 202.16L146.609 243.311" stroke="black" stroke-width="1.8919"
        stroke-miterlimit="10" />
    <path
        d="M101.558 198.775L125.986 222.693L150.163 246.864C159.764 242.923 169.699 238.1 179.638 232.722L115.483 169.247C110.178 179.21 105.427 189.163 101.558 198.775Z"
        fill="url(#paint7_linear_1188_1702)" />
    <path
        d="M166.708 184.342L150.163 246.864L145.449 243.762L142.209 247.546L126.095 231.603L166.708 184.342Z"
        fill="url(#paint8_linear_1188_1702)" />
    <path d="M240.42 29.532L318.612 106.895" stroke="black" stroke-width="1.8919"
        stroke-miterlimit="10" />
    <path
        d="M327.933 19.497C327.933 19.497 318.073 11.432 276.502 18.173C263.032 20.358 251.077 24.418 240.42 29.532L318.612 106.895C323.648 96.219 327.616 84.257 329.692 70.799C336.099 29.267 327.933 19.497 327.933 19.497Z"
        fill="url(#paint9_linear_1188_1702)" />
    <mask id="mask0_1188_1702" style="mask-type:luminance" maskUnits="userSpaceOnUse" x="101" y="15"
        width="232" height="232">
        <path
            d="M329.692 70.799C336.099 29.266 327.933 19.497 327.933 19.497C327.933 19.497 318.073 11.432 276.502 18.173C232.594 25.293 204.725 52.29 185.747 71.058C161.193 95.34 120.699 151.214 101.558 198.775L125.986 222.693L150.163 246.864C197.668 227.366 253.325 186.494 277.454 161.792C296.104 142.7 322.925 114.667 329.692 70.799Z"
            fill="white" />
    </mask>
    <g mask="url(#mask0_1188_1702)">
        <path d="M318.936 123.583L224.801 31.374L228.771 27.32L322.907 119.529L318.936 123.583Z"
            fill="url(#paint10_linear_1188_1702)" />
    </g>
    <mask id="mask1_1188_1702" style="mask-type:luminance" maskUnits="userSpaceOnUse" x="101" y="15"
        width="232" height="232">
        <path
            d="M329.692 70.799C336.099 29.266 327.933 19.497 327.933 19.497C327.933 19.497 318.073 11.432 276.502 18.173C232.594 25.293 204.725 52.29 185.747 71.058C161.193 95.34 120.699 151.214 101.558 198.775L125.986 222.693L150.163 246.864C197.668 227.366 253.325 186.494 277.454 161.792C296.104 142.7 322.925 114.667 329.692 70.799Z"
            fill="white" />
    </mask>
    <g mask="url(#mask1_1188_1702)">
        <path d="M313.159 131.076L219.023 38.867L221.672 36.164L315.808 128.373L313.159 131.076Z"
            fill="url(#paint11_linear_1188_1702)" />
    </g>
    <path opacity="0.09" d="M115.475 169.244L179.638 232.723" stroke="black" stroke-width="1.8919"
        stroke-miterlimit="10" />
    <path
        d="M166.375 182.054C166.375 182.054 162.793 176.507 128.174 211.341C93.554 246.174 64.0301 279.542 66.7811 282.264C69.5321 284.986 102.725 255.248 137.344 220.415C171.964 185.581 166.375 182.054 166.375 182.054Z"
        fill="url(#paint12_linear_1188_1702)" />
    <path opacity="0.33"
        d="M166.375 182.054C166.375 182.054 162.793 176.507 128.174 211.341C93.554 246.174 64.0301 279.542 66.7811 282.264C66.7811 282.264 76.4601 268.356 102.44 240.687C128.422 213.018 158.214 182.779 166.375 182.054Z"
        fill="white" />
    <path
        d="M248.305 161.337C265.06 144.442 264.947 117.165 248.052 100.41C231.158 83.655 203.881 83.769 187.125 100.663C170.37 117.558 170.484 144.835 187.378 161.59C204.273 178.344 231.551 178.231 248.305 161.337Z"
        fill="url(#paint13_linear_1188_1702)" />
    <path
        d="M247.808 159.875C264.47 143.074 264.357 115.949 247.557 99.288C230.758 82.627 203.632 82.739 186.97 99.539C170.309 116.339 170.422 143.465 187.221 160.126C204.021 176.787 231.147 176.674 247.808 159.875Z"
        fill="#D4D4D4" />
    <path
        d="M247.962 160.029C264.419 143.435 264.308 116.642 247.714 100.186C231.121 83.729 204.328 83.841 187.871 100.434C171.414 117.028 171.526 143.82 188.119 160.277C204.712 176.734 231.505 176.623 247.962 160.029Z"
        fill="url(#paint14_linear_1188_1702)" />
    <path
        d="M193.862 153.187C180.915 140.347 180.828 119.366 193.668 106.419C206.508 93.472 227.489 93.385 240.436 106.225C253.383 119.065 253.47 140.046 240.63 152.993C227.79 165.94 206.809 166.027 193.862 153.187Z"
        fill="#76C9F0" />
    <path
        d="M195.049 152.878C182.628 140.559 182.545 120.43 194.863 108.009C207.182 95.588 227.311 95.504 239.732 107.823C252.153 120.141 252.236 140.27 239.918 152.692C227.599 165.113 207.47 165.197 195.049 152.878Z"
        fill="url(#paint15_linear_1188_1702)" />
    <mask id="mask2_1188_1702" style="mask-type:luminance" maskUnits="userSpaceOnUse" x="185" y="98"
        width="65" height="65">
        <path
            d="M195.049 152.878C182.628 140.559 182.545 120.43 194.863 108.009C207.182 95.588 227.311 95.504 239.732 107.823C252.153 120.141 252.236 140.27 239.918 152.692C227.599 165.113 207.47 165.197 195.049 152.878Z"
            fill="white" />
    </mask>
    <g mask="url(#mask2_1188_1702)">
        <path d="M246.628 105.257L176.297 136.317L181.339 147.732L251.669 116.671L246.628 105.257Z"
            fill="url(#paint16_linear_1188_1702)" />
    </g>
    <mask id="mask3_1188_1702" style="mask-type:luminance" maskUnits="userSpaceOnUse" x="185" y="98"
        width="65" height="65">
        <path
            d="M195.049 152.878C182.628 140.559 182.545 120.43 194.863 108.009C207.182 95.588 227.311 95.504 239.732 107.823C252.153 120.141 252.236 140.27 239.918 152.692C227.599 165.113 207.47 165.197 195.049 152.878Z"
            fill="white" />
    </mask>
    <g mask="url(#mask3_1188_1702)">
        <path d="M253.642 122.916L183.312 153.976L185.849 159.721L256.179 128.661L253.642 122.916Z"
            fill="url(#paint17_linear_1188_1702)" />
    </g>
    <path
        d="M190.371 105.877C190.576 104.9 189.951 103.942 188.975 103.737C187.998 103.532 187.04 104.157 186.835 105.133C186.63 106.11 187.255 107.068 188.231 107.273C189.208 107.479 190.166 106.853 190.371 105.877Z"
        fill="#A3A3A3" />
    <path
        d="M184.09 115.77C184.295 114.793 183.67 113.835 182.694 113.63C181.717 113.425 180.759 114.05 180.554 115.026C180.349 116.003 180.974 116.961 181.95 117.166C182.926 117.372 183.885 116.747 184.09 115.77Z"
        fill="#A3A3A3" />
    <path
        d="M197.491 99.044C197.696 98.067 197.071 97.109 196.095 96.904C195.118 96.699 194.16 97.324 193.955 98.3C193.75 99.277 194.375 100.235 195.351 100.44C196.327 100.646 197.285 100.021 197.491 99.044Z"
        fill="#A3A3A3" />
    <path
        d="M182.47 137.209C181.831 136.442 180.692 136.338 179.925 136.977C179.158 137.616 179.054 138.755 179.693 139.522C180.332 140.289 181.471 140.393 182.238 139.754C183.005 139.115 183.109 137.976 182.47 137.209Z"
        fill="#A3A3A3" />
    <path
        d="M186.334 148.273C185.695 147.506 184.556 147.402 183.789 148.041C183.022 148.68 182.918 149.819 183.557 150.586C184.196 151.353 185.335 151.457 186.102 150.818C186.869 150.179 186.973 149.04 186.334 148.273Z"
        fill="#A3A3A3" />
    <path
        d="M181.736 125.629C181.097 124.862 179.958 124.758 179.191 125.397C178.424 126.036 178.32 127.175 178.959 127.942C179.598 128.709 180.737 128.813 181.504 128.174C182.271 127.535 182.375 126.395 181.736 125.629Z"
        fill="#A3A3A3" />
    <path
        d="M201.448 162.932C200.451 162.964 199.668 163.799 199.7 164.796C199.732 165.793 200.567 166.576 201.564 166.544C202.561 166.512 203.344 165.677 203.312 164.68C203.279 163.683 202.445 162.9 201.448 162.932Z"
        fill="#A3A3A3" />
    <path
        d="M212.548 166.689C211.551 166.721 210.768 167.556 210.8 168.553C210.832 169.55 211.666 170.333 212.664 170.301C213.661 170.269 214.444 169.434 214.412 168.437C214.38 167.44 213.545 166.657 212.548 166.689Z"
        fill="#A3A3A3" />
    <path
        d="M191.864 156.389C190.867 156.421 190.084 157.256 190.116 158.253C190.148 159.25 190.983 160.033 191.98 160.001C192.977 159.969 193.76 159.134 193.728 158.137C193.696 157.14 192.862 156.357 191.864 156.389Z"
        fill="#A3A3A3" />
    <path
        d="M233.63 163.563C233.036 164.365 233.205 165.497 234.008 166.09C234.81 166.683 235.942 166.514 236.535 165.712C237.129 164.91 236.959 163.778 236.157 163.185C235.355 162.591 234.223 162.76 233.63 163.563Z"
        fill="#A3A3A3" />
    <path
        d="M242.899 157.272C242.305 158.074 242.475 159.206 243.277 159.799C244.079 160.393 245.211 160.223 245.804 159.421C246.398 158.619 246.228 157.487 245.426 156.894C244.624 156.301 243.493 156.47 242.899 157.272Z"
        fill="#A3A3A3" />
    <path
        d="M222.684 166.639C222.09 167.441 222.26 168.573 223.062 169.166C223.864 169.76 224.996 169.59 225.589 168.788C226.183 167.986 226.013 166.854 225.211 166.261C224.408 165.667 223.277 165.837 222.684 166.639Z"
        fill="#A3A3A3" />
    <path
        d="M252.515 139.195C252.754 140.164 253.734 140.755 254.702 140.516C255.671 140.277 256.262 139.297 256.023 138.328C255.784 137.359 254.804 136.768 253.836 137.007C252.867 137.247 252.276 138.226 252.515 139.195Z"
        fill="#A3A3A3" />
    <path
        d="M253.731 128.462C253.97 129.431 254.95 130.022 255.918 129.783C256.887 129.544 257.478 128.564 257.239 127.596C257 126.627 256.02 126.036 255.052 126.275C254.083 126.514 253.492 127.493 253.731 128.462Z"
        fill="#A3A3A3" />
    <path
        d="M248.837 149.927C249.076 150.896 250.056 151.487 251.024 151.248C251.993 151.009 252.584 150.029 252.345 149.06C252.106 148.091 251.126 147.5 250.158 147.739C249.189 147.979 248.598 148.959 248.837 149.927Z"
        fill="#A3A3A3" />
    <path
        d="M247.508 108.672C248.419 109.079 249.488 108.67 249.895 107.759C250.302 106.848 249.893 105.779 248.982 105.372C248.071 104.965 247.002 105.374 246.595 106.285C246.188 107.197 246.597 108.265 247.508 108.672Z"
        fill="#A3A3A3" />
    <path
        d="M239.303 100.515C240.214 100.922 241.283 100.513 241.69 99.602C242.097 98.691 241.688 97.622 240.777 97.215C239.866 96.808 238.797 97.216 238.39 98.128C237.983 99.04 238.392 100.108 239.303 100.515Z"
        fill="#A3A3A3" />
    <path
        d="M252.304 118.745C253.215 119.152 254.284 118.744 254.691 117.832C255.098 116.921 254.689 115.852 253.778 115.445C252.867 115.038 251.798 115.447 251.391 116.358C250.984 117.269 251.393 118.338 252.304 118.745Z"
        fill="#A3A3A3" />
    <path
        d="M218.128 93.807C219.012 93.345 219.355 92.253 218.893 91.369C218.431 90.485 217.339 90.142 216.455 90.604C215.571 91.066 215.228 92.158 215.69 93.042C216.152 93.927 217.243 94.269 218.128 93.807Z"
        fill="#A3A3A3" />
    <path
        d="M206.921 95.768C207.805 95.306 208.148 94.214 207.686 93.33C207.224 92.446 206.132 92.103 205.248 92.565C204.364 93.027 204.021 94.119 204.483 95.003C204.945 95.888 206.036 96.231 206.921 95.768Z"
        fill="#A3A3A3" />
    <path
        d="M229.822 95.46C230.706 94.998 231.049 93.906 230.587 93.022C230.125 92.137 229.033 91.795 228.149 92.257C227.265 92.719 226.922 93.811 227.384 94.695C227.846 95.58 228.938 95.923 229.822 95.46Z"
        fill="#A3A3A3" />
    <path
        d="M189.991 105.497C190.196 104.52 189.571 103.562 188.595 103.357C187.618 103.152 186.66 103.777 186.455 104.753C186.25 105.73 186.875 106.688 187.851 106.893C188.828 107.098 189.786 106.473 189.991 105.497Z"
        fill="#D4D4D4" />
    <path
        d="M183.71 115.39C183.915 114.413 183.29 113.455 182.314 113.25C181.337 113.045 180.379 113.67 180.174 114.646C179.969 115.623 180.594 116.581 181.57 116.786C182.546 116.992 183.505 116.367 183.71 115.39Z"
        fill="#D4D4D4" />
    <path
        d="M197.112 98.664C197.317 97.688 196.692 96.729 195.716 96.524C194.739 96.319 193.781 96.944 193.576 97.92C193.371 98.897 193.996 99.855 194.972 100.06C195.948 100.266 196.906 99.641 197.112 98.664Z"
        fill="#D4D4D4" />
    <path
        d="M182.09 136.829C181.451 136.062 180.312 135.958 179.545 136.597C178.778 137.236 178.674 138.375 179.313 139.142C179.952 139.909 181.091 140.013 181.858 139.374C182.625 138.736 182.729 137.596 182.09 136.829Z"
        fill="#D4D4D4" />
    <path
        d="M185.955 147.893C185.316 147.126 184.177 147.022 183.41 147.661C182.643 148.3 182.539 149.439 183.178 150.206C183.817 150.973 184.956 151.077 185.723 150.438C186.49 149.799 186.594 148.66 185.955 147.893Z"
        fill="#D4D4D4" />
    <path
        d="M181.356 125.249C180.717 124.482 179.578 124.378 178.811 125.017C178.044 125.656 177.94 126.795 178.579 127.562C179.218 128.329 180.357 128.433 181.124 127.794C181.891 127.155 181.995 126.016 181.356 125.249Z"
        fill="#D4D4D4" />
    <path
        d="M201.068 162.552C200.071 162.584 199.288 163.418 199.32 164.416C199.352 165.413 200.187 166.196 201.184 166.164C202.181 166.132 202.964 165.297 202.932 164.3C202.899 163.303 202.065 162.52 201.068 162.552Z"
        fill="#D4D4D4" />
    <path
        d="M212.168 166.309C211.171 166.341 210.388 167.176 210.42 168.173C210.452 169.17 211.287 169.953 212.284 169.921C213.281 169.889 214.064 169.055 214.032 168.057C214 167.06 213.165 166.277 212.168 166.309Z"
        fill="#D4D4D4" />
    <path
        d="M191.484 156.01C190.487 156.042 189.704 156.877 189.736 157.874C189.768 158.871 190.603 159.654 191.6 159.622C192.597 159.59 193.38 158.755 193.348 157.758C193.316 156.76 192.482 155.977 191.484 156.01Z"
        fill="#D4D4D4" />
    <path
        d="M233.251 163.183C232.657 163.985 232.827 165.117 233.629 165.71C234.431 166.304 235.563 166.134 236.156 165.332C236.75 164.53 236.58 163.398 235.778 162.805C234.976 162.211 233.844 162.38 233.251 163.183Z"
        fill="#D4D4D4" />
    <path
        d="M242.52 156.892C241.926 157.694 242.096 158.826 242.898 159.419C243.7 160.013 244.832 159.843 245.425 159.041C246.019 158.239 245.849 157.107 245.047 156.514C244.245 155.921 243.114 156.09 242.52 156.892Z"
        fill="#D4D4D4" />
    <path
        d="M222.303 166.259C221.709 167.061 221.879 168.193 222.681 168.786C223.483 169.38 224.615 169.21 225.208 168.408C225.802 167.606 225.632 166.474 224.83 165.881C224.029 165.287 222.897 165.456 222.303 166.259Z"
        fill="#D4D4D4" />
    <path
        d="M252.136 138.815C252.375 139.784 253.355 140.375 254.323 140.136C255.292 139.897 255.883 138.917 255.644 137.948C255.405 136.979 254.425 136.388 253.457 136.627C252.488 136.867 251.897 137.846 252.136 138.815Z"
        fill="#D4D4D4" />
    <path
        d="M253.351 128.082C253.59 129.051 254.57 129.642 255.538 129.403C256.507 129.164 257.098 128.184 256.859 127.216C256.62 126.247 255.64 125.656 254.672 125.895C253.704 126.134 253.112 127.113 253.351 128.082Z"
        fill="#D4D4D4" />
    <path
        d="M248.457 149.547C248.696 150.516 249.676 151.107 250.644 150.868C251.613 150.629 252.204 149.649 251.965 148.68C251.726 147.711 250.746 147.12 249.778 147.359C248.809 147.599 248.218 148.579 248.457 149.547Z"
        fill="#D4D4D4" />
    <path
        d="M247.128 108.292C248.039 108.699 249.108 108.29 249.515 107.379C249.922 106.468 249.513 105.399 248.602 104.992C247.691 104.585 246.622 104.994 246.215 105.905C245.808 106.817 246.217 107.885 247.128 108.292Z"
        fill="#D4D4D4" />
    <path
        d="M238.924 100.135C239.835 100.542 240.904 100.134 241.311 99.222C241.718 98.311 241.309 97.242 240.398 96.835C239.487 96.428 238.418 96.836 238.011 97.748C237.604 98.66 238.013 99.728 238.924 100.135Z"
        fill="#D4D4D4" />
    <path
        d="M251.925 118.365C252.836 118.772 253.905 118.363 254.312 117.452C254.719 116.541 254.311 115.472 253.399 115.065C252.488 114.658 251.419 115.067 251.012 115.978C250.605 116.889 251.014 117.958 251.925 118.365Z"
        fill="#D4D4D4" />
    <path
        d="M217.749 93.427C218.633 92.965 218.976 91.873 218.514 90.989C218.052 90.105 216.96 89.762 216.076 90.224C215.192 90.686 214.849 91.778 215.311 92.662C215.773 93.547 216.864 93.889 217.749 93.427Z"
        fill="#D4D4D4" />
    <path
        d="M206.542 95.389C207.426 94.927 207.769 93.835 207.307 92.951C206.845 92.067 205.753 91.724 204.869 92.186C203.985 92.648 203.642 93.74 204.104 94.624C204.566 95.508 205.657 95.851 206.542 95.389Z"
        fill="#D4D4D4" />
    <path
        d="M229.442 95.08C230.326 94.618 230.669 93.526 230.207 92.642C229.745 91.758 228.653 91.415 227.769 91.877C226.885 92.339 226.542 93.431 227.004 94.315C227.466 95.2 228.558 95.542 229.442 95.08Z"
        fill="#D4D4D4" />
    <path d="M189.284 103.805L186.899 106.19L187.155 106.446L189.54 104.061L189.284 103.805Z"
        fill="#B9B9B9" />
    <path d="M183.004 113.699L180.619 116.084L180.874 116.339L183.259 113.954L183.004 113.699Z"
        fill="#B9B9B9" />
    <path d="M196.405 96.9731L194.02 99.3581L194.275 99.6134L196.66 97.2284L196.405 96.9731Z"
        fill="#B9B9B9" />
    <path d="M181.764 136.666L179.379 139.051L179.634 139.306L182.019 136.921L181.764 136.666Z"
        fill="#B9B9B9" />
    <path d="M185.627 147.723L183.242 150.108L183.497 150.363L185.883 147.978L185.627 147.723Z"
        fill="#B9B9B9" />
    <path d="M181.03 125.085L178.645 127.47L178.9 127.725L181.285 125.34L181.03 125.085Z"
        fill="#B9B9B9" />
    <path d="M202.188 163.038L199.803 165.424L200.058 165.679L202.443 163.294L202.188 163.038Z"
        fill="#B9B9B9" />
    <path d="M213.288 166.794L210.903 169.18L211.158 169.435L213.543 167.05L213.288 166.794Z"
        fill="#B9B9B9" />
    <path d="M192.604 156.495L190.219 158.88L190.475 159.136L192.86 156.751L192.604 156.495Z"
        fill="#B9B9B9" />
    <path d="M235.764 162.938L233.379 165.323L233.635 165.578L236.02 163.193L235.764 162.938Z"
        fill="#B9B9B9" />
    <path d="M245.032 156.639L242.647 159.024L242.902 159.279L245.287 156.894L245.032 156.639Z"
        fill="#B9B9B9" />
    <path d="M224.818 166.013L222.433 168.398L222.688 168.654L225.073 166.269L224.818 166.013Z"
        fill="#B9B9B9" />
    <path d="M254.951 137.063L252.566 139.448L252.822 139.703L255.207 137.318L254.951 137.063Z"
        fill="#B9B9B9" />
    <path d="M256.167 126.329L253.782 128.714L254.037 128.97L256.423 126.584L256.167 126.329Z"
        fill="#B9B9B9" />
    <path d="M251.274 147.801L248.889 150.186L249.144 150.442L251.529 148.057L251.274 147.801Z"
        fill="#B9B9B9" />
    <path d="M248.927 105.323L246.542 107.708L246.797 107.963L249.182 105.578L248.927 105.323Z"
        fill="#B9B9B9" />
    <path d="M240.722 97.1659L238.337 99.5509L238.593 99.8062L240.978 97.4212L240.722 97.1659Z"
        fill="#B9B9B9" />
    <path d="M253.723 115.396L251.338 117.781L251.594 118.036L253.979 115.651L253.723 115.396Z"
        fill="#B9B9B9" />
    <path d="M217.972 90.5065L215.587 92.8916L215.843 93.1468L218.228 90.7618L217.972 90.5065Z"
        fill="#B9B9B9" />
    <path d="M206.766 92.467L204.381 94.8521L204.637 95.1073L207.022 92.7223L206.766 92.467Z"
        fill="#B9B9B9" />
    <path d="M229.667 92.1595L227.282 94.5445L227.537 94.7998L229.923 92.4147L229.667 92.1595Z"
        fill="#B9B9B9" />
    <path opacity="0.33"
        d="M327.933 19.497C327.933 19.497 318.073 11.432 276.502 18.173C232.594 25.293 204.725 52.29 185.747 71.058C161.193 95.34 120.699 151.214 101.558 198.775C101.558 198.775 189.908 13.424 327.933 19.497Z"
        fill="white" />
    <path opacity="0.33"
        d="M106.616 203.694L102.245 207.988L100.712 206.49L105.015 202.16L106.616 203.694Z"
        fill="white" />
    <g opacity="0.48">
        <mask id="mask4_1188_1702" style="mask-type:luminance" maskUnits="userSpaceOnUse" x="101" y="15"
            width="232" height="232">
            <path
                d="M329.692 70.799C336.099 29.266 327.933 19.497 327.933 19.497C327.933 19.497 318.073 11.432 276.502 18.173C232.594 25.293 204.725 52.29 185.747 71.058C166.156 90.432 136.419 129.916 115.475 169.244C110.169 179.208 105.427 189.161 101.558 198.775L125.986 222.693L150.163 246.864C197.668 227.366 253.325 186.494 277.454 161.792C296.104 142.7 322.925 114.667 329.692 70.799Z"
                fill="white" />
        </mask>
        <g mask="url(#mask4_1188_1702)">
            <path
                d="M150.163 246.864C150.163 246.864 326.431 157.529 327.933 19.497L377.678 41.329L213.051 294.843C213.051 294.843 179.865 282.381 150.163 246.864Z"
                fill="url(#paint18_linear_1188_1702)" />
        </g>
    </g>
    <path
        d="M150.163 246.864L153.644 259.527C153.644 259.527 187.543 242.815 208.322 215.796C208.322 215.796 170.8 238.3 150.163 246.864Z"
        fill="url(#paint19_linear_1188_1702)" />
    <path opacity="0.33"
        d="M134.807 297.681C145.228 287.473 149.137 277.61 149.82 275.726C149.664 276.122 149.312 276.9 148.548 278.184C146.224 282.453 142.78 287.084 137.87 292.523C131.613 299.454 122.538 308.657 121.213 312.629C120.966 313.473 121.09 314.015 121.47 314.359C121.473 314.361 121.474 314.364 121.477 314.365C121.483 314.341 123.245 309.006 134.807 297.681Z"
        fill="white" />
    <defs>
        <linearGradient id="paint0_linear_1188_1702" x1="-5.1515" y1="351.899" x2="98.0832" y2="254.659"
            gradientUnits="userSpaceOnUse">
            <stop stop-color="#FF8533" />
            <stop offset="0.9964" stop-color="#FFD052" />
        </linearGradient>
        <linearGradient id="paint1_linear_1188_1702" x1="42.0297" y1="307.842" x2="105.663" y2="245.236"
            gradientUnits="userSpaceOnUse">
            <stop offset="0.0036" stop-color="#FFD052" />
            <stop offset="1" stop-color="#FFE9AE" />
        </linearGradient>
        <linearGradient id="paint2_linear_1188_1702" x1="160.86" y1="276.322" x2="101.291" y2="178.949"
            gradientUnits="userSpaceOnUse">
            <stop stop-color="#767B7F" />
            <stop offset="1" stop-color="#A3A3A3" />
        </linearGradient>
        <linearGradient id="paint3_linear_1188_1702" x1="71.9982" y1="171.46" x2="167.457" y2="280.556"
            gradientUnits="userSpaceOnUse">
            <stop offset="0.0036" stop-color="#F02E54" />
            <stop offset="1" stop-color="#8F1931" />
        </linearGradient>
        <linearGradient id="paint4_linear_1188_1702" x1="173.044" y1="306.868" x2="142.365" y2="152.271"
            gradientUnits="userSpaceOnUse">
            <stop offset="0.0036" stop-color="#F02E54" />
            <stop offset="1" stop-color="#8F1931" />
        </linearGradient>
        <linearGradient id="paint5_linear_1188_1702" x1="201.037" y1="76.4578" x2="271.658" y2="243.251"
            gradientUnits="userSpaceOnUse">
            <stop offset="0.0036" stop-color="#EEF4FA" />
            <stop offset="1" stop-color="#CDDEED" />
        </linearGradient>
        <linearGradient id="paint6_linear_1188_1702" x1="210.68" y1="94.9507" x2="270.592" y2="236.452"
            gradientUnits="userSpaceOnUse">
            <stop offset="0.0036" stop-color="#EEF4FA" />
            <stop offset="1" stop-color="#CDDEED" />
        </linearGradient>
        <linearGradient id="paint7_linear_1188_1702" x1="98.0095" y1="163.203" x2="161.75" y2="241.847"
            gradientUnits="userSpaceOnUse">
            <stop stop-color="#C7C7C7" />
            <stop offset="1" stop-color="#A3A3A3" />
        </linearGradient>
        <linearGradient id="paint8_linear_1188_1702" x1="144.377" y1="201.729" x2="157.42" y2="241.946"
            gradientUnits="userSpaceOnUse">
            <stop stop-color="#1D262D" />
            <stop offset="1" stop-color="#1D262D" stop-opacity="0" />
        </linearGradient>
        <linearGradient id="paint9_linear_1188_1702" x1="285.387" y1="32.8113" x2="417.188" y2="138.519"
            gradientUnits="userSpaceOnUse">
            <stop offset="0.0036" stop-color="#F02E54" />
            <stop offset="1" stop-color="#8F1931" />
        </linearGradient>
        <linearGradient id="paint10_linear_1188_1702" x1="453.682" y1="261.912" x2="209.682"
            y2="8.91226" gradientUnits="userSpaceOnUse">
            <stop stop-color="#8F1931" />
            <stop offset="0.9964" stop-color="#F02E54" />
        </linearGradient>
        <linearGradient id="paint11_linear_1188_1702" x1="446.265" y1="269.066" x2="202.265"
            y2="16.0662" gradientUnits="userSpaceOnUse">
            <stop stop-color="#8F1931" />
            <stop offset="0.9964" stop-color="#F02E54" />
        </linearGradient>
        <linearGradient id="paint12_linear_1188_1702" x1="96.3047" y1="203.147" x2="171.034"
            y2="310.038" gradientUnits="userSpaceOnUse">
            <stop offset="0.0036" stop-color="#F02E54" />
            <stop offset="1" stop-color="#8F1931" />
        </linearGradient>
        <linearGradient id="paint13_linear_1188_1702" x1="225.983" y1="148.31" x2="252.965" y2="204.804"
            gradientUnits="userSpaceOnUse">
            <stop stop-color="#1D262D" />
            <stop offset="0.6767" stop-color="#1D262D" stop-opacity="0.3233" />
            <stop offset="1" stop-color="#1D262D" stop-opacity="0" />
        </linearGradient>
        <linearGradient id="paint14_linear_1188_1702" x1="198.293" y1="84.3252" x2="251.294"
            y2="208.315" gradientUnits="userSpaceOnUse">
            <stop stop-color="#C7C7C7" />
            <stop offset="1" stop-color="#A3A3A3" />
        </linearGradient>
        <linearGradient id="paint15_linear_1188_1702" x1="191.981" y1="91.5192" x2="254.618"
            y2="187.242" gradientUnits="userSpaceOnUse">
            <stop stop-color="#ADE5FF" />
            <stop offset="1" stop-color="#76C9F0" />
        </linearGradient>
        <linearGradient id="paint16_linear_1188_1702" x1="247.992" y1="103.975" x2="181.032"
            y2="148.313" gradientUnits="userSpaceOnUse">
            <stop stop-color="#F9FBFC" />
            <stop offset="1" stop-color="#F9FBFC" stop-opacity="0" />
        </linearGradient>
        <linearGradient id="paint17_linear_1188_1702" x1="256.572" y1="116.933" x2="189.613"
            y2="161.271" gradientUnits="userSpaceOnUse">
            <stop stop-color="#F9FBFC" />
            <stop offset="1" stop-color="#F9FBFC" stop-opacity="0" />
        </linearGradient>
        <linearGradient id="paint18_linear_1188_1702" x1="377.41" y1="220.325" x2="232.996" y2="130.145"
            gradientUnits="userSpaceOnUse">
            <stop stop-color="#1D262D" />
            <stop offset="1" stop-color="#1D262D" stop-opacity="0" />
        </linearGradient>
        <linearGradient id="paint19_linear_1188_1702" x1="170.784" y1="214.814" x2="185.731" y2="248.3"
            gradientUnits="userSpaceOnUse">
            <stop stop-color="#1D262D" />
            <stop offset="1" stop-color="#1D262D" stop-opacity="0" />
        </linearGradient>
    </defs>
</svg>